<?xml version="1.0" encoding="UTF-8"?>
<svg id="Layer_1" xmlns="http://www.w3.org/2000/svg" version="1.1" viewBox="0 0 2030 2030">
  <!-- Generator: Adobe Illustrator 30.2.1, SVG Export Plug-In . SVG Version: 2.1.1 Build 1)  -->
  <defs>
    <style>
      .st0 {
        fill: none;
      }

      .st1 {
        fill: #fff;
      }
    </style>
  </defs>
  <path class="st1" d="M1880.7,1819.5H149.3L524.1,210.5h958.6l398,1608.9ZM1862.6,1808.9h4.4l-353.3-1414.2,348.9,1414.2ZM1585.7,1808.9h4.5l-.6-2.5c-.2-1-.5-2-.8-3.1l-.2-.6c-.1-.4-.2-.9-.3-1.3-.3-1.2-.7-2.3-1-3.4l-.5-1.5c-.4-1.3-.8-2.5-1.3-3.7l-.4-1.2c-.5-1.4-1-2.7-1.5-4l-.4-.9c-.6-1.4-1.2-2.8-1.8-4.2l-.3-.6c-.7-1.5-1.4-2.9-2.1-4.4l-.2-.4c-.8-1.5-1.6-3.1-2.4-4.6l4.5-2.5-4.6,2.3c-.9-1.6-1.8-3.2-2.7-4.7v-.2c-15.3-25.9-39.3-50.5-70.6-72.3,30.4,22.2,53.4,47.1,67.9,73.8l.2.3c.9,1.6,1.7,3.3,2.6,4.9v.2c.9,1.6,1.6,3.2,2.4,4.8l.2.4c.7,1.6,1.4,3.1,2,4.7l.3.8c.6,1.4,1.1,2.9,1.6,4.3l.4,1.1c.5,1.3.9,2.7,1.4,4l.5,1.5c.4,1.2.7,2.4,1.1,3.7.1.5.3,1,.4,1.5v.5c.4,1.1.7,2.2.9,3.2l.9,4.1ZM439.6,1808.9h4.5l.7-3.5,5.2.7-5.2-.8v-.4c.3-1,.5-2,.8-3l.2-.9c.1-.4.2-.9.3-1.3.3-1.2.7-2.5,1-3.7l.4-1.5c.4-1.4.8-2.7,1.3-4.1l.4-1.1c.5-1.4,1-2.9,1.6-4.3l.3-.8c.6-1.6,1.2-3.1,1.9-4.6l.2-.5c.7-1.6,1.4-3.2,2.1-4.7v-.2c.9-1.7,1.7-3.3,2.6-5,14.7-28.3,39.1-54.6,71.7-77.7-33.4,22.7-58.7,48.5-74.3,75.9v.2c-.9,1.4-1.8,3-2.6,4.6l-4.7-2,4.6,2.2c-.8,1.5-1.6,3.1-2.3,4.6v.2c-.9,1.7-1.6,3.1-2.2,4.6l-.3.6c-.6,1.4-1.2,2.8-1.7,4.2l-.3.9c-.5,1.3-1,2.7-1.5,4l-.4,1.2c-.4,1.2-.8,2.5-1.2,3.7l-.4,1.5c-.3,1.1-.7,2.3-.9,3.4-.1.4-.2.8-.3,1.3v.6c-.4,1-.6,2-.9,3.1l-.5,2.6ZM162.7,1808.9h4.4l.9-3.6L498.3,378.9,162.7,1808.9ZM1598.9,1800.8h250.7l-200.6-776.5h-337.5c0,.6,0,1.2,0,1.7v1.1c0,.6.1,1.2.2,1.8,0,.9,0,1.9,0,2.8v.8c0,.6,0,1.2,0,1.8,0,.9,0,1.8,0,2.7v1c0,.6,0,1.1,0,1.7,0,.9,0,1.9-.2,2.8v1.1c0,.5-.1,1-.2,1.5,0,1.1-.2,2.2-.3,3.3v.5c-.1.5-.2,1-.2,1.5-.1,1.1-.3,2.2-.4,3.3v.7c-.2.4-.2.9-.3,1.3-.2,1.1-.4,2.1-.5,3.2v.8c-.2.4-.3.9-.4,1.3-.2,1.1-.4,2.1-.7,3.2l-.2.9c0,.4-.2.8-.3,1.2-.3,1.2-.6,2.3-.9,3.4l-.2.6c0,.4-.2.8-.3,1.1-.3,1.2-.7,2.3-1,3.5l-.2.6c-.1.4-.2.7-.3,1.1-.4,1.2-.8,2.3-1.2,3.5l-.2.5c-.1.4-.3.7-.4,1.1-.4,1.2-.9,2.3-1.3,3.5l-.6,1.5c-.5,1.2-1,2.3-1.5,3.5l-.6,1.5c-.5,1.2-1.1,2.3-1.6,3.4l-.7,1.5c-.6,1.2-1.1,2.3-1.7,3.4l-.7,1.4c-.6,1.1-1.2,2.3-1.9,3.4l-.8,1.4c-.7,1.1-1.3,2.3-2,3.4l-.8,1.3c-.7,1.1-1.4,2.2-2.1,3.3l-.9,1.3c-.7,1.1-1.5,2.2-2.3,3.3l-.9,1.3c-.8,1.1-1.6,2.2-2.4,3.2l-1,1.3c-.8,1.1-1.7,2.1-2.5,3.2l-1,1.3c-.9,1-1.7,2.1-2.6,3.1l-1.1,1.3c-.9,1-1.8,2-2.7,3l-1.1,1.3c-.9,1-1.9,2-2.8,2.9l-1.2,1.3c-.9,1-1.9,1.9-2.9,2.9l-1.3,1.3c-1,.9-2,1.9-3,2.8l-1.4,1.3c-1,.9-2,1.8-3,2.7l-1.4,1.3c-.9.8-1.9,1.6-2.8,2.4l-1.8,1.5c-1,.8-1.9,1.6-2.9,2.4l-1.8,1.5c-.9.7-1.9,1.5-2.9,2.2l-2,1.5c-1,.8-2.1,1.5-3.1,2.2l-1.9,1.4c-1,.7-2,1.4-3.1,2.1l-2.1,1.4c-1,.7-2,1.3-3,2l-2.3,1.5c-.9.6-1.9,1.2-2.8,1.8l-1.3.8c-.4.3-.9.5-1.3.8-.9.6-1.9,1.1-2.9,1.7l-1.3.7c-.5.3-1,.6-1.5.9-.9.5-1.8,1-2.8,1.5l-3,1.6c-.9.5-1.9,1-2.8,1.5l-1.5.8c-.5.3-1,.5-1.5.8-.9.5-1.8.9-2.7,1.4l-1.6.8c-.6.3-1.1.6-1.7.8-.9.4-1.8.8-2.7,1.3l-1.7.8c-.6.3-1.2.6-1.8.8-.9.4-1.8.8-2.7,1.2l-1.7.7c-.6.3-1.2.6-1.9.8-.9.4-1.7.7-2.6,1.1l-1.9.8c-.6.3-1.2.5-1.9.8-.8.3-1.7.7-2.5,1l-2,.8c-.7.3-1.3.5-2,.8-.8.3-1.7.6-2.6,1l-1.9.7c-.7.3-1.4.5-2.1.8-.9.3-1.7.6-2.6.9l-1.9.7c-.7.3-1.5.5-2.2.8-.9.3-1.7.6-2.6.9l-2,.7c-.7.2-1.5.5-2.2.7-.8.3-1.6.5-2.4.8l-2.1.7c-.8.2-1.6.5-2.3.7-.8.2-1.6.5-2.5.7l-2.1.6c-.8.2-1.6.5-2.4.7-.8.2-1.6.4-2.4.7l-2.2.6c-.8.2-1.7.5-2.5.7-.8.2-1.6.4-2.5.6l-2.2.6c-.8.2-1.7.4-2.5.6-.8.2-1.6.4-2.4.6l-2.3.5c-.9.2-1.7.4-2.6.6-.8.2-1.6.3-2.4.5l-2.4.5c-.9.2-1.8.4-2.6.6-.8.2-1.6.3-2.4.5l-2.4.5c-.9.2-1.8.4-2.7.5-.8.2-1.6.3-2.5.4l-2.4.4c-.9.2-1.8.3-2.8.5-.8.1-1.6.3-2.4.4l-2.5.4c-.9.2-1.9.3-2.8.4-.9.1-1.8.3-2.6.4l-2.4.3c-.9.1-1.8.3-2.7.4-.9.1-1.8.2-2.7.3l-2.5.3c-.9.1-1.7.2-2.6.3-.9.1-1.8.2-2.7.3l-2.5.3c-.9,0-1.8.2-2.6.3-.9,0-1.9.2-2.8.3l-2.6.2c-.9,0-1.7.2-2.6.2-1,0-1.9.1-2.9.2l-2.6.2c-.9,0-1.7.1-2.6.2-1,0-2,.1-3,.2l-2.6.2c-.8,0-1.7.1-2.5.1-1.1,0-2.2,0-3.3.1h-2.5c-.8.1-1.6.2-2.4.2-1.4,0-2.9,0-4.3.1h-3.9c-5.5.2-11.1.2-16.7,0h-4c-1.4-.1-2.8-.2-4.2-.2-.8,0-1.6,0-2.4,0h-2.7c-1.1-.1-2.1-.2-3.2-.2-.9,0-1.7,0-2.5-.1l-2.7-.2c-1,0-1.9-.1-2.9-.2-.9,0-1.7-.1-2.6-.2l-2.7-.2c-.9,0-1.9-.1-2.8-.2-.9,0-1.7-.2-2.6-.2l-2.5-.2c-1,0-1.9-.2-2.9-.3-.9,0-1.8-.2-2.6-.3l-2.4-.3c-1-.1-1.9-.2-2.9-.3-.9-.1-1.8-.2-2.6-.3l-2.5-.3c-.9-.1-1.8-.2-2.7-.3-.9-.1-1.8-.3-2.7-.4l-2.5-.4c-.9-.1-1.7-.2-2.6-.4-.9-.1-1.9-.3-2.8-.4l-2.4-.4c-.8-.1-1.7-.3-2.5-.4-.9-.2-1.8-.3-2.7-.5l-2.4-.4c-.8-.1-1.7-.3-2.5-.5-.9-.2-1.8-.4-2.7-.5l-2.4-.5c-.8-.2-1.6-.3-2.4-.5-.9-.2-1.8-.4-2.7-.6l-2.3-.5c-.8-.2-1.6-.3-2.4-.5-.9-.2-1.7-.4-2.6-.6l-2.3-.5c-.8-.2-1.6-.4-2.5-.6-.9-.2-1.7-.4-2.6-.6l-2.2-.6c-.8-.2-1.6-.4-2.5-.6-.9-.2-1.7-.5-2.6-.7l-2.2-.6c-.8-.2-1.6-.4-2.4-.7-.8-.2-1.6-.5-2.4-.7l-2.2-.6c-.8-.2-1.6-.5-2.5-.7-.8-.2-1.5-.5-2.3-.7l-2.1-.7c-.8-.3-1.7-.5-2.5-.8-.8-.2-1.5-.5-2.2-.7l-2-.7c-.9-.3-1.7-.6-2.6-.9-.7-.2-1.4-.5-2.1-.7l-2-.7c-.9-.3-1.7-.6-2.6-.9-.7-.3-1.4-.5-2.1-.8l-1.9-.7c-.9-.3-1.7-.6-2.6-1-.7-.3-1.4-.5-2-.8l-1.8-.7c-.9-.3-1.8-.7-2.7-1.1-.6-.3-1.3-.5-1.9-.8l-1.7-.7c-.9-.4-1.9-.8-2.8-1.2-.6-.3-1.3-.6-1.9-.8l-1.7-.7c-.9-.4-1.8-.8-2.7-1.2-.6-.3-1.2-.6-1.8-.8l-1.6-.7c-.9-.4-1.9-.9-2.8-1.3-.6-.3-1.1-.5-1.7-.8l-1.7-.8c-.9-.4-1.8-.9-2.7-1.3-.5-.3-1.1-.5-1.6-.8l-1.7-.9c-.9-.5-1.8-.9-2.7-1.4-.5-.3-1-.6-1.5-.8l-1.4-.8c-1-.5-1.9-1-2.9-1.6l-2.8-1.6c-1-.6-1.9-1.1-2.9-1.7-.5-.3-.9-.5-1.4-.8l-1.2-.7c-1-.6-2-1.2-2.9-1.8l-2.5-1.6c-1-.6-1.9-1.2-2.9-1.8l-2.3-1.5c-1-.7-2-1.3-2.9-2l-2.1-1.5c-1-.7-2-1.4-3-2.2l-1.7-1.3c-1.2-.9-2.2-1.7-3.3-2.5l-1.8-1.4c-1-.8-2-1.6-3-2.4l-1.5-1.3c-1.1-.9-2.1-1.8-3.2-2.6l-1.4-1.3c-1.1-.9-2.1-1.8-3.1-2.7l-1.6-1.4c-.9-.9-1.9-1.7-2.8-2.6l-1.3-1.2c-1-1-2-1.9-2.9-2.9l-1.2-1.2c-1-1-1.9-2-2.8-3l-1.2-1.3c-.9-1-1.8-2-2.7-3l-1.1-1.3c-.9-1-1.8-2.1-2.6-3.1l-1-1.3c-.8-1-1.7-2.1-2.5-3.1l-1-1.3c-.8-1.1-1.6-2.1-2.4-3.2l-.9-1.3c-.8-1.1-1.6-2.2-2.3-3.3l-.9-1.3c-.7-1.1-1.5-2.2-2.2-3.3l-.8-1.4c-.7-1.1-1.4-2.2-2-3.3l-.8-1.4c-.7-1.1-1.3-2.3-1.9-3.4l-.7-1.4c-.6-1.1-1.2-2.3-1.8-3.4l-.7-1.4c-.6-1.2-1.1-2.3-1.6-3.4l-.7-1.5c-.5-1.2-1-2.3-1.5-3.5l-.6-1.6c-.5-1.1-.9-2.3-1.4-3.5l-.6-1.6c-.4-1.2-.8-2.3-1.2-3.5-.1-.4-.2-.7-.3-1.1l-.2-.6c-.4-1.2-.7-2.3-1.1-3.5l-.5-1.7c-.3-1.1-.6-2.3-.9-3.4-.1-.4-.2-.8-.3-1.3v-.6c-.4-1.1-.7-2.3-.9-3.4,0-.4-.2-.9-.3-1.3v-.6c-.4-1.2-.6-2.3-.7-3.4,0-.5-.1-.9-.2-1.4v-.9c-.3-1-.5-2.1-.6-3.1,0-.5-.1-1-.2-1.4v-.8c-.2-1-.3-2-.4-3.1,0-.5,0-1-.1-1.5v-.9c-.1-1-.2-2-.3-3,0-.5,0-1.1,0-1.6v-1.3c0-.9-.1-1.7-.1-2.6,0-.6,0-1.2,0-1.8v-.6c0-1.2,0-2.1,0-3.1,0-.6,0-1.3,0-1.9v-1.1c0-.6,0-1.2.1-1.8h-337.5l-187.6,776.5h250.8c.1-.5.2-1,.4-1.4.3-1.3.7-2.5,1-3.7v-.5c.3-.4.4-.8.5-1.2.4-1.3.8-2.7,1.3-4l.4-1.3c.5-1.5,1-2.9,1.6-4.4l.4-1c.6-1.5,1.2-3.1,1.9-4.6l.3-.7c.7-1.6,1.4-3.2,2.2-4.8l.2-.5c.8-1.6,1.6-3.3,2.5-4.9l4.7,2-4.6-2.2c.9-1.7,1.8-3.4,2.8-5.1v-.2c21.8-38.2,61.4-73.5,114.5-101.7l.6-.3c2.1-1.1,4.1-2.2,6.1-3.2,2.4-1.2,4.6-2.3,6.8-3.4h.3c2.2-1.2,4.4-2.3,6.7-3.4h.3c2.4-1.2,4.6-2.3,6.8-3.3l.6-.3c2.2-1,4.4-2,6.6-2.9l.8-.3c2.2-.9,4.4-1.9,6.6-2.8l.9-.4c2.2-.9,4.3-1.8,6.5-2.6l1.1-.4c2.1-.8,4.3-1.7,6.5-2.5l1.3-.5c2.1-.8,4.2-1.6,6.4-2.3l1.5-.5c2.1-.7,4.2-1.5,6.3-2.2l1.7-.6c2.1-.7,4.1-1.4,6.2-2.1l1.8-.6c2-.7,4.1-1.3,6.1-1.9l2-.6c2-.6,4-1.2,6-1.8l2.2-.6c2-.6,3.9-1.1,5.9-1.7l2.4-.7c1.9-.5,3.9-1.1,5.8-1.6l2.6-.7c1.9-.5,3.8-1,5.7-1.4l2.8-.7c1.9-.4,3.7-.9,5.6-1.3l3-.7c1.8-.4,3.7-.8,5.5-1.2l3.7-.8c1.6-.3,3.3-.7,4.9-1l3.9-.8c1.6-.3,3.2-.6,4.8-.9l4.5-.8c1.4-.3,2.8-.5,4.3-.8l4.8-.8c1.3-.2,2.7-.4,4-.7.9-.1,1.8-.3,2.6-.4l2.4-.4c1.3-.2,2.5-.4,3.8-.6.9-.1,1.8-.2,2.7-.4l2.6-.3c1.2-.2,2.5-.3,3.7-.5.9-.1,1.9-.2,2.8-.3l2.7-.3c1.1-.1,2.3-.3,3.4-.4,1-.1,2.1-.2,3.1-.3l2.7-.3c1.1-.1,2.2-.2,3.3-.4,1.1-.1,2.2-.2,3.3-.3l2.6-.2c1.1,0,2.1-.2,3.2-.3,1.1,0,2.2-.2,3.4-.3l2.7-.2c1,0,2.1-.2,3.1-.2,1.2,0,2.4-.2,3.6-.2l2.8-.2c1,0,1.9-.1,2.9-.2,1.2,0,2.4-.1,3.6-.2h2.9c.9-.2,1.8-.2,2.7-.3,1.4,0,2.7-.1,4.1-.2h2.8c.8-.1,1.7-.2,2.5-.2,1.8,0,3.6,0,5.3-.1h4c3.1-.1,6.3-.2,9.4-.2h357.3c3.1,0,6.3,0,9.4,0h4c1.8.1,3.6.2,5.3.2.8,0,1.6,0,2.5,0h2.8c1.4.1,2.7.2,4.1.2.9,0,1.8,0,2.7.1h2.9c1.2.2,2.5.3,3.7.3,1,0,1.9.1,2.9.2l2.8.2c1.2,0,2.4.1,3.6.2,1,0,2,.2,3,.2l2.9.2c1.1,0,2.2.2,3.3.3,1.1,0,2.1.2,3.2.3l2.7.2c1.1,0,2.2.2,3.3.3,1.1.1,2.3.2,3.4.4l2.6.3c1,.1,2.1.2,3.1.3,1.2.1,2.4.3,3.6.4l2.5.3c1,.1,2,.2,2.9.4,1.3.2,2.5.3,3.8.5l2.4.3c.9.1,1.8.2,2.8.4,1.3.2,2.7.4,4,.6l4.9.7c1.4.2,2.7.4,4.1.7l4.8.8c1.5.3,2.9.5,4.4.8l4.3.8c1.6.3,3.1.6,4.7.9l4,.8c1.6.3,3.3.7,4.9,1l3.7.8c1.8.4,3.6.8,5.4,1.2l3.1.7c1.9.4,3.8.9,5.6,1.3l2.8.7c1.9.5,3.8,1,5.7,1.4l2.6.7c2,.5,3.9,1,5.9,1.6l2.4.7c2,.5,4,1.1,5.9,1.7l2.2.6c2,.6,4,1.2,6.1,1.8l2,.6c2.1.6,4.1,1.3,6.1,1.9l1.9.6c2.1.7,4.2,1.4,6.2,2.1l1.7.6c2.1.7,4.2,1.5,6.3,2.2l1.5.5c2.2.8,4.3,1.6,6.4,2.3l1.3.5c2.2.8,4.3,1.6,6.5,2.5l1.1.4c2.2.9,4.4,1.7,6.6,2.6l.9.4c2.2.9,4.4,1.8,6.6,2.8l.8.3c2.2,1,4.5,1.9,6.7,2.9l.6.3c2.3,1,4.5,2,6.7,3.1l.4.2c2.3,1.1,4.5,2.1,6.7,3.2l-1.8,4.9,2-4.8c2.4,1.2,4.6,2.3,6.9,3.4,2.4,1.2,4.7,2.4,6.9,3.6,53.5,28.2,93.8,63.4,116.2,101.7v.2c1,1.5,2,3.2,2.9,4.9v.2c1,1.6,1.9,3.3,2.7,4.9l.2.5c.8,1.5,1.5,3.1,2.2,4.7l.3.7c.7,1.5,1.3,3.1,2,4.6l.4,1c.6,1.4,1.1,2.9,1.7,4.3l.4,1.3c.5,1.4,1,2.7,1.4,4.1l.5,1.6c.4,1.3.8,2.5,1.1,3.7.1.5.3,1,.4,1.5h0ZM456.5,1800.8h1116.5c-.2-.8-.5-1.6-.7-2.4l-.4-1.4c-.4-1.2-.8-2.5-1.2-3.7l-.3-1c-.5-1.3-1-2.7-1.5-4l-.3-.7c-.6-1.4-1.2-2.8-1.8-4.2l-.2-.4c-.7-1.5-1.4-3-2.1-4.4v-.3c-.8-1.3-1.5-2.8-2.3-4.2l-.2-.3c-21.5-40.1-64-76.2-122.6-104.6-2.2-1.1-4.4-2.1-6.6-3.1-2.3-1.1-4.5-2.1-6.7-3.1l-.3-.2c-2.1-.9-4.3-1.9-6.5-2.8l-.5-.2c-2.1-.9-4.3-1.8-6.4-2.7l-.6-.3c-2.1-.9-4.3-1.7-6.4-2.6l-.8-.3c-2.1-.8-4.2-1.6-6.3-2.4l-1-.4c-2.1-.8-4.2-1.5-6.3-2.3l-1.2-.4c-2.1-.7-4.1-1.4-6.2-2.1l-1.4-.5c-2-.7-4.1-1.4-6.1-2l-1.5-.5c-2-.6-4-1.3-6-1.9l-1.7-.5c-2-.6-3.9-1.2-5.9-1.8l-1.9-.5c-1.9-.6-3.9-1.1-5.8-1.6l-2.1-.6c-1.9-.5-3.8-1-5.7-1.5l-2.3-.6c-1.9-.5-3.7-1-5.6-1.4l-2.5-.6c-1.8-.4-3.7-.9-5.5-1.3l-2.7-.6c-1.8-.4-3.6-.8-5.4-1.2l-2.9-.6c-1.9-.4-3.6-.8-5.3-1.1l-3.3-.6c-1.6-.3-3.3-.6-4.9-.9l-3.7-.7c-1.5-.3-3-.5-4.6-.8l-4.3-.7c-1.3-.2-2.7-.4-4-.7l-4.6-.7c-1.3-.2-2.6-.4-3.8-.6l-4.9-.7c-1.2-.2-2.4-.3-3.6-.5-.9-.1-1.7-.2-2.6-.3l-2.4-.3c-1.2-.1-2.3-.3-3.5-.4-.9-.1-1.8-.2-2.7-.3l-2.7-.3c-1.1-.1-2.2-.2-3.2-.3-1,0-1.9-.2-2.9-.3l-2.6-.2c-1,0-2.1-.2-3.1-.3-1.1,0-2.1-.2-3.2-.3l-2.6-.2c-1,0-1.9-.2-2.9-.2-1.1,0-2.2-.1-3.2-.2l-2.8-.2c-.9,0-1.8-.1-2.8-.2-1.2,0-2.3-.1-3.5-.2h-2.8c-.9-.2-1.7-.2-2.6-.3-1.2,0-2.5,0-3.7-.1h-2.9c-.8-.1-1.5-.2-2.3-.2-1.6,0-3.2,0-4.8-.1h-4.1c-3-.1-6-.1-8.9-.1h-358.7c-3,0-6,0-8.9,0h-4.2c-1.6.1-3.2.1-4.7.2-.8,0-1.6,0-2.3,0h-2.8c-1.3.1-2.5.2-3.8.2-.9,0-1.7,0-2.6.1h-2.8c-1.2.2-2.3.2-3.5.3-.9,0-1.8.1-2.7.2l-2.8.2c-1.1,0-2.2.1-3.2.2-1,0-1.9.1-2.9.2l-2.6.2c-1.1,0-2.1.2-3.2.3-1,0-2.1.2-3.1.3l-2.5.2c-1,0-2,.2-3,.3-1.1.1-2.2.2-3.3.3l-2.5.3c-.9,0-1.9.2-2.8.3-1.2.1-2.3.3-3.4.4l-2.4.3c-.9.1-1.8.2-2.7.3-1.2.2-2.4.3-3.6.5l-2.4.3c-.8.1-1.7.2-2.5.3-1.3.2-2.6.4-4,.6l-4.4.7c-1.5.2-2.9.5-4.3.7l-4,.7c-1.5.3-3,.5-4.5.8l-3.8.7c-1.6.3-3.2.6-4.8.9l-3.4.7c-1.7.3-3.4.7-5.1,1.1l-3,.6c-1.8.4-3.5.8-5.3,1.2l-2.8.6c-1.8.4-3.7.9-5.5,1.3l-2.5.6c-1.9.5-3.7.9-5.6,1.4l-2.3.6c-1.9.5-3.8,1-5.7,1.5l-2.1.6c-1.9.5-3.9,1.1-5.8,1.6l-1.9.5c-2,.6-3.9,1.2-5.9,1.8l-1.7.5c-2,.6-4,1.2-6,1.9l-1.5.5c-2,.7-4,1.3-6.1,2l-1.3.5c-2.1.7-4.1,1.4-6.2,2.1l-1.1.4c-2.1.7-4.2,1.5-6.2,2.3l-1,.4c-2.1.8-4.2,1.6-6.3,2.4l-.8.3c-2.1.8-4.3,1.7-6.4,2.6l-.6.3c-2.2.9-4.3,1.8-6.4,2.7l-.5.2c-2.2.9-4.3,1.9-6.5,2.8h-.2c-2.3,1.1-4.5,2.1-6.6,3.1-2.4,1.1-4.5,2.1-6.7,3.2h-.3c-58,28.5-99.6,64.6-120.4,104.5-.8,1.5-1.6,3.1-2.3,4.6v.2c-.8,1.4-1.5,2.9-2.1,4.4v.3c-.8,1.6-1.4,3-1.9,4.4l-.3.7c-.5,1.3-1,2.6-1.4,4l-.3,1c-.4,1.2-.8,2.5-1.2,3.7l-.4,1.4c-.2.9-.5,1.7-.7,2.6ZM576.3,1658.5l1.7,3.9c0,0,.2,0,.2-.1l-1.9-3.8ZM726.3,1024.3c0,.6,0,1.2,0,1.8v.8c0,.5,0,1.1,0,1.6,0,.9,0,1.7,0,2.6v.9c0,.5,0,.9,0,1.4,0,.9,0,1.8.1,2.7v.8c0,.4,0,.8,0,1.3,0,1,.1,2,.2,3v.7c0,.4.1.7.1,1.1.1,1,.2,2.1.4,3.1l.2,1.6c.1,1.1.3,2.1.5,3.2l.2,1.5c.2,1.1.4,2.2.6,3.3l.3,1.4c.2,1.1.5,2.2.8,3.4l.3,1.2c.3,1.2.6,2.3.9,3.4l.3,1.2c.3,1.2.7,2.3,1.1,3.5l.3,1.1c.4,1.2.8,2.4,1.3,3.5l.4,1c.4,1.2.9,2.4,1.4,3.6l.4.9c.5,1.2,1,2.4,1.6,3.6l.4.8c.6,1.2,1.1,2.4,1.7,3.6l.4.8c.6,1.2,1.3,2.4,1.9,3.6l.4.7c.7,1.2,1.4,2.4,2.1,3.6l.4.6c.7,1.2,1.5,2.4,2.2,3.6l.4.6c.8,1.2,1.6,2.4,2.4,3.6l.4.6c.8,1.2,1.7,2.4,2.6,3.6l.4.6c.9,1.2,1.8,2.4,2.7,3.6l.4.5c.9,1.2,1.9,2.4,2.9,3.6l.4.5c1,1.2,2,2.3,3,3.5l.4.4c1,1.2,2.1,2.3,3.2,3.5l.4.4c1.1,1.2,2.2,2.3,3.3,3.4l.4.4c1.1,1.1,2.3,2.3,3.4,3.4l.4.4c1.2,1.1,2.4,2.2,3.6,3.3l.5.4c1.2,1.1,2.4,2.2,3.7,3.2l.5.4c1.2,1.1,2.5,2.1,3.8,3.1l.6.5c1.3,1,2.5,2,3.8,3l.6.5c1.3,1,2.6,2,4,3l.6.5c1.3,1,2.7,1.9,4,2.9l.7.5c1.3.9,2.7,1.9,4.1,2.8l.7.5c1.4.9,2.8,1.8,4.2,2.7l.8.5c1.4.9,2.8,1.7,4.2,2.6l.9.5c1.4.8,2.9,1.7,4.3,2.5l1,.6c1.4.8,2.9,1.6,4.3,2.4l1.1.6c1.4.8,2.9,1.5,4.4,2.3l1.1.6c1.4.7,2.9,1.5,4.4,2.2l1.2.6c1.5.7,2.9,1.4,4.4,2.1l1.3.6c1.5.7,2.9,1.3,4.4,2l1.4.6c1.5.6,3,1.3,4.4,1.9l1.5.6c1.5.6,2.9,1.2,4.4,1.8l1.7.7c1.5.6,2.9,1.1,4.4,1.7l1.8.7c1.4.5,2.8,1,4.2,1.5l2.1.7c1.3.4,2.6.9,3.8,1.3l2.6.8c1.3.4,2.5.8,3.8,1.2l2.7.8c1.3.4,2.5.7,3.8,1.1l2.8.8c1.2.3,2.4.7,3.6,1l3.1.9c1.1.3,2.3.6,3.5.9l3.3.8c1.1.3,2.2.5,3.3.8l3.5.8c1.1.2,2.2.5,3.3.7l3.7.8c1.1.2,2.2.4,3.3.6l3.8.7c1.1.2,2.1.4,3.2.6l3.9.7c1.1.2,2.2.4,3.2.5l4,.6c1,.2,2.1.3,3.1.5l2.2.3c.6,0,1.3.2,1.9.3,1,.1,2.1.3,3.1.4l2.3.3c.7,0,1.3.2,2,.2,1,.1,2.1.2,3.1.3l4.3.5c1.1.1,2.2.2,3.2.3l2.3.2c.7,0,1.3.1,2,.2,1.1,0,2.2.2,3.3.2l2.4.2c.7,0,1.3.1,2,.1,1,0,2.1.1,3.1.2h2.5c.7.2,1.4.2,2.1.3,1.2,0,2.4.1,3.6.1l4.1.2c1.6,0,3.2,0,4.8.1h3c5.2.2,10.5.2,15.7,0h2.9c1.6-.1,3.2-.1,4.8-.2l4.2-.2c1.2,0,2.3,0,3.5-.1.7,0,1.4,0,2.1-.1h2.5c1-.2,2.1-.3,3.1-.3.7,0,1.3,0,2-.1l2.3-.2c1.1,0,2.2-.2,3.3-.2.7,0,1.3-.1,2-.2l2.3-.2c1.1,0,2.2-.2,3.3-.3l4.3-.5c1-.1,2.1-.2,3.1-.3l4.2-.5c1-.1,2.1-.3,3.1-.4.6,0,1.3-.2,1.9-.3l2.2-.3c1-.1,2.1-.3,3.1-.5l4-.6c1.1-.2,2.1-.3,3.2-.5.6-.1,1.2-.2,1.9-.3l2.1-.4c1.1-.2,2.1-.4,3.2-.6l3.9-.8c1.1-.2,2.1-.4,3.1-.6l3.7-.8c1.1-.2,2.2-.5,3.3-.7l3.5-.8c1.1-.3,2.3-.5,3.4-.8l3.3-.8c1.1-.3,2.3-.6,3.4-.9l3.2-.9c1.2-.3,2.3-.6,3.5-1l2.9-.8c1.2-.4,2.5-.7,3.7-1.1l2.7-.9c1.2-.4,2.5-.8,3.7-1.2l2.3-.8c1.3-.4,2.7-.9,4-1.3l2.2-.8c1.4-.5,2.7-1,4.1-1.5l2-.7c1.4-.5,2.8-1,4.2-1.6l1.7-.7c1.5-.6,2.9-1.2,4.4-1.8l1.5-.7c1.5-.6,2.9-1.2,4.4-1.9l1.4-.6c1.5-.6,2.9-1.3,4.4-2l1.3-.6c1.5-.7,2.9-1.4,4.4-2.1l1.2-.6c1.5-.7,2.9-1.4,4.3-2.2l1.2-.6c1.4-.7,2.9-1.5,4.3-2.3l1-.6c1.4-.8,2.9-1.6,4.3-2.4l1-.6c1.4-.8,2.8-1.6,4.2-2.5l.9-.6c1.4-.9,2.8-1.7,4.2-2.6l.8-.5c1.4-.9,2.8-1.8,4.1-2.7l.7-.5c1.4-.9,2.7-1.8,4.1-2.8l.7-.5c1.3-1,2.7-1.9,4-2.9l.6-.5c1.3-1,2.6-2,3.9-3l.6-.5c1.3-1,2.6-2,3.8-3.1l.5-.5c1.3-1,2.5-2.1,3.7-3.1l.5-.4c1.2-1.1,2.4-2.1,3.6-3.2l.5-.4c1.2-1.1,2.3-2.2,3.5-3.3l.5-.4c1.1-1.1,2.3-2.2,3.4-3.3l.4-.4c1.1-1.1,2.2-2.3,3.2-3.4l.4-.4c1-1.1,2.1-2.3,3.1-3.5l.4-.4c1-1.2,2-2.3,3-3.5l.4-.5c.9-1.2,1.9-2.3,2.8-3.5l.4-.5c.9-1.2,1.8-2.4,2.7-3.6l.4-.5c.8-1.2,1.7-2.4,2.5-3.6l.4-.5c.8-1.2,1.6-2.4,2.4-3.6l.3-.6c.8-1.2,1.5-2.4,2.2-3.7l.4-.7c.7-1.2,1.4-2.4,2-3.6l.4-.7c.6-1.2,1.3-2.4,1.9-3.6l.4-.7c.6-1.2,1.2-2.4,1.7-3.6l.4-.9c.5-1.2,1-2.4,1.5-3.6l.4-.9c.5-1.2.9-2.4,1.4-3.6l.3-1c.4-1.2.8-2.3,1.2-3.5l.3-1.1c.4-1.2.7-2.3,1-3.5l.3-1.2c.3-1.1.6-2.3.9-3.4l.3-1.3c.3-1.1.5-2.2.7-3.4l.3-1.4c.2-1.1.4-2.2.6-3.3l.2-1.5c.2-1.1.3-2.1.4-3.2l.2-1.6c.1-1,.2-2.1.3-3.1,0-.4,0-.7,0-1.1v-.7c.1-1,.2-2,.2-3,0-.4,0-.8,0-1.2v-.7c0-1,0-1.9,0-2.9,0-.4,0-.9,0-1.4v-1.1c0-.8,0-1.6,0-2.4,0-.5,0-1.1,0-1.6v-.8c0-.6,0-1.3-.1-1.9h-564.1ZM1299.3,1016.3l.2,2.4c0,.7.1,1.4.2,2.1v.6c.1.6.2,1.3.2,1.9,0,.9.1,1.8.2,2.7v.7c0,.6.1,1.2.1,1.9,0,.9,0,1.8,0,2.7v1c0,.5,0,1,0,1.6,0,1.1,0,2.1,0,3.2v.6c0,.5,0,.9,0,1.4,0,1.1-.1,2.2-.2,3.3v.6c0,.4,0,.8-.1,1.3,0,1.1-.2,2.3-.3,3.4v.5c0,.4-.1.8-.2,1.2-.1,1.2-.3,2.3-.5,3.5l-.2,1.6c-.2,1.2-.4,2.4-.6,3.6l-.3,1.5c-.2,1.2-.5,2.4-.8,3.7l-.3,1.4c-.3,1.3-.6,2.5-1,3.7l-.3,1.3c-.3,1.2-.7,2.5-1.1,3.8l-.3,1.1c-.4,1.3-.9,2.6-1.3,3.8l-.4,1.1c-.5,1.3-1,2.6-1.5,3.8l-.4,1c-.5,1.3-1.1,2.6-1.6,3.8l-.4.9c-.6,1.3-1.2,2.6-1.8,3.9l-.4.8c-.6,1.3-1.3,2.6-2,3.9l-.4.8c-.7,1.3-1.4,2.6-2.1,3.9l-.4.7c-.7,1.3-1.5,2.6-2.3,3.9l-.4.7c-.8,1.3-1.6,2.6-2.5,3.9l-.4.6c-.9,1.3-1.7,2.5-2.7,3.8l-.4.6c-.9,1.3-1.9,2.6-2.8,3.8l-.4.5c-1,1.3-2,2.5-3,3.8l-.4.5c-1,1.2-2.1,2.5-3.1,3.7l-.4.5c-1.1,1.2-2.2,2.4-3.3,3.7l-.4.4c-1.1,1.2-2.3,2.4-3.4,3.6l-.5.5c-1.1,1.2-2.3,2.3-3.5,3.5l-.5.5c-.6.6-1.3,1.2-1.9,1.8.4-.3.7-.7,1.1-1l1.3-1.2c1-.9,1.9-1.8,2.8-2.7l1.2-1.2c.9-.9,1.8-1.8,2.7-2.7l1.1-1.2c.9-.9,1.8-1.9,2.7-2.8l1.1-1.2c.9-1,1.7-1.9,2.6-2.9l1-1.2c.8-1,1.7-1.9,2.5-2.9l1-1.2c.8-1,1.6-2,2.4-3l.9-1.2c.8-1,1.5-2,2.2-3l.9-1.2c.7-1,1.4-2.1,2.1-3.1l.8-1.3c.7-1,1.3-2.1,2-3.1l.8-1.3c.6-1.1,1.3-2.1,1.9-3.2l.7-1.3c.6-1.1,1.2-2.1,1.8-3.2l.7-1.3c.6-1.1,1.1-2.1,1.6-3.2l.6-1.3c.5-1.1,1-2.1,1.5-3.2l.6-1.4c.5-1.1.9-2.1,1.3-3.2l.6-1.4c.4-1.1.8-2.1,1.2-3.2l.5-1.5c.4-1.1.7-2.1,1.1-3.2l.5-1.5c.3-1.1.6-2.1.9-3.2l.4-1.6c.3-1.1.6-2.1.8-3.2l.4-1.7c.3-1.2.5-2.1.7-3.1l.4-2c.2-1,.4-1.9.5-2.9,0-.4.1-.7.2-1.1v-.7c.2-1,.4-2,.5-3.1,0-.4,0-.9.1-1.3v-.6c.2-1,.3-2,.3-3,0-.4,0-.9,0-1.3v-1.1c.1-.9.2-1.7.2-2.6,0-.5,0-1,0-1.5v-1c0-.8,0-1.7,0-2.5,0-.5,0-1.1,0-1.6v-.9c0-.9,0-1.7,0-2.6,0-.5,0-1.1,0-1.6v-1.1c-.1-.8-.1-1.5-.2-2.3,0-.6-.1-1.3-.2-1.9v-1.4c-.2-.4-.2-.8-.2-1.2l-.9-8c0-.3,0-.7-.1-1l-.2-1.5c0-.7-.2-1.4-.3-2.1,0-.5-.2-1.1-.3-1.6l-.2-1.2c-.1-.8-.3-1.5-.4-2.3,0-.5-.2-1-.3-1.4l-.2-.9c-.2-.9-.4-1.9-.6-2.8,0-.4-.2-.9-.3-1.3l-.2-.9c-.2-1-.5-2-.7-2.9l-.5-1.7c-.3-1.1-.6-2.2-.9-3.3l-.5-1.5c-.4-1.2-.7-2.3-1.1-3.5l-.5-1.4c-.4-1.2-.8-2.4-1.2-3.6l-.4-1.2c-.5-1.3-.9-2.5-1.4-3.7l-.4-1c-.5-1.3-1-2.6-1.6-3.8l-.4-.9c-.6-1.3-1.2-2.6-1.8-3.9l-.4-.8c-.6-1.3-1.3-2.7-2-4l-.3-.6c-.7-1.4-1.4-2.7-2.1-4.1l-.3-.6c-.7-1.4-1.5-2.8-2.3-4.2l-.2-.4c-.8-1.4-1.7-2.8-2.5-4.3l-.2-.3c-.9-1.5-1.8-2.9-2.7-4.3v-.2c-1.1-1.5-2.1-2.9-3-4.3-1.1-1.6-2.1-3.1-3.2-4.5-2.5-3.5-5.2-6.9-8-10.3.5.7,1,1.3,1.6,2l.6.8c.9,1.2,1.8,2.5,2.7,3.7l.6.8c.9,1.2,1.7,2.5,2.6,3.7l.6.9c.8,1.2,1.7,2.5,2.5,3.7l.6.9c.8,1.2,1.6,2.5,2.3,3.7l.6,1c.7,1.2,1.5,2.5,2.2,3.7l.6,1c.7,1.2,1.4,2.4,2,3.7l.6,1.1c.6,1.2,1.3,2.4,1.9,3.6l.6,1.2c.6,1.2,1.2,2.4,1.7,3.6l.6,1.3c.5,1.2,1.1,2.4,1.6,3.6l.6,1.4c.5,1.2,1,2.3,1.4,3.5l.6,1.5c.5,1.1.9,2.3,1.3,3.4l.2.5c.1.4.3.8.4,1.2.4,1.1.8,2.2,1.2,3.4l.2.5c.1.4.3.8.4,1.3.3,1,.6,2,.9,3.1l.3.9c.1.4.3.8.4,1.3.3,1,.6,2.1.9,3.2l.2.6c.1.5.2.9.4,1.4.2.9.5,1.9.7,2.9l.2.7c.1.6.3,1.1.4,1.7.2.9.4,1.7.5,2.6l.2.8c.1.6.3,1.3.4,1.9.1.7.3,1.5.4,2.3l.2,1.2c.1.6.2,1.2.3,1.9.1.8.2,1.7.3,2.5v.5c.1.6.2,1.2.3,1.7l.7,5.8h0ZM715.3,1016.1l-.3,3.2c0,.4,0,.8,0,1.2v1.4c-.2.6-.2,1.3-.2,1.9,0,.7,0,1.5,0,2.2v1.2c0,.6,0,1.1-.1,1.7,0,.9,0,1.7,0,2.6v.2s0,.7,0,.7c0,.5,0,1,0,1.6,0,.8,0,1.6,0,2.3v1.3c0,.5,0,.9.1,1.4,0,.9.1,1.8.2,2.7v1c.1.4.1.8.2,1.3,0,.9.2,1.9.3,2.8v.9c.1.4.2.8.3,1.2.1.9.3,1.9.4,2.8l.3,2.1c.2,1,.4,1.9.6,2.9l.2.8c0,.4.1.7.2,1.1.2,1.1.5,2.1.7,3.2l.4,1.7c.3,1.1.6,2.1.9,3.2l.4,1.6c.3,1.1.7,2.1,1,3.2l.5,1.5c.4,1.1.7,2.1,1.1,3.2l.5,1.5c.4,1.1.8,2.1,1.3,3.2l.6,1.4c.4,1.1.9,2.1,1.4,3.2l.6,1.4c.5,1.1,1,2.1,1.5,3.2l.7,1.4c.5,1.1,1.1,2.1,1.7,3.2l.7,1.3c.6,1.1,1.2,2.1,1.8,3.2l.7,1.3c.6,1.1,1.3,2.1,1.9,3.1l.8,1.3c.7,1,1.4,2.1,2.1,3.1l.8,1.3c.7,1,1.4,2.1,2.2,3.1l.9,1.2c.7,1,1.5,2,2.3,3l.9,1.2c.8,1,1.6,2,2.4,3l1,1.2c.8,1,1.7,2,2.5,2.9l1,1.2c.9,1,1.7,1.9,2.6,2.9l1.1,1.2c.9.9,1.8,1.9,2.7,2.8l1.2,1.2c.9.9,1.9,1.8,2.8,2.8l1.2,1.2c.2.2.4.4.7.6-.5-.5-1-1-1.5-1.5l-.5-.5c-1.2-1.2-2.3-2.4-3.5-3.6l-.4-.5c-1.1-1.2-2.3-2.4-3.3-3.7l-.4-.5c-1.1-1.2-2.1-2.5-3.2-3.7l-.4-.5c-1-1.2-2-2.5-3-3.8l-.4-.5c-1-1.2-1.9-2.5-2.9-3.8l-.4-.6c-.9-1.3-1.8-2.5-2.7-3.8l-.4-.6c-.9-1.3-1.7-2.6-2.6-3.9l-.4-.6c-.8-1.3-1.6-2.6-2.4-3.9l-.4-.7c-.8-1.3-1.5-2.6-2.2-3.9l-.4-.7c-.7-1.3-1.4-2.6-2-3.9l-.4-.8c-.6-1.3-1.3-2.6-1.9-3.9l-.4-.9c-.6-1.3-1.1-2.6-1.7-3.9l-.4-1c-.5-1.3-1-2.6-1.5-3.8l-.4-1.1c-.5-1.3-.9-2.5-1.4-3.8l-.4-1.2c-.4-1.2-.8-2.5-1.2-3.8l-.4-1.3c-.4-1.2-.7-2.5-1-3.7,0-.3-.1-.6-.2-.9v-.5c-.4-1.2-.7-2.4-1-3.7,0-.3-.1-.7-.2-1v-.5c-.3-1.2-.6-2.4-.8-3.6l-.3-1.6c-.2-1.1-.4-2.3-.5-3.5,0-.4-.1-.8-.1-1.2v-.6c-.2-1.1-.3-2.3-.5-3.4,0-.4,0-.9-.1-1.3v-.6c-.1-1.1-.2-2.2-.3-3.3,0-.5,0-1,0-1.5v-.8c0-1-.1-2-.1-3,0-.5,0-1.1,0-1.6v-.9c0-.9,0-1.9,0-2.8,0-.6,0-1.2,0-1.9v-.7c0-.9,0-1.8.1-2.7,0-.6,0-1.3.1-1.9v-.6c0-.7.2-1.4.2-2.2l.8-8.2c0-.7.1-1.3.2-2v-.4c.1-.8.2-1.5.3-2.3,0-.6.2-1.3.3-1.9v-.8c.3-.9.4-1.7.5-2.6.1-.6.2-1.1.3-1.7l.2-.9c.2-.9.3-1.8.5-2.7.1-.5.2-1,.3-1.5l.2-1.1c.2-.9.4-1.8.6-2.7.1-.5.3-1,.4-1.5v-.5c.4-1.1.7-2.1,1-3.2.1-.4.2-.8.4-1.2l.2-.6c.3-1.1.6-2.2,1-3.3.1-.4.3-.8.4-1.3l.2-.5c.4-1.1.7-2.2,1.1-3.4l.6-1.6c.4-1.1.8-2.3,1.3-3.4l.6-1.5c.5-1.2.9-2.3,1.4-3.5l.6-1.4c.5-1.2,1-2.4,1.6-3.6l.6-1.3c.6-1.2,1.1-2.4,1.7-3.6l.6-1.2c.6-1.2,1.2-2.4,1.8-3.6l.6-1.1c.7-1.2,1.3-2.5,2-3.7l.6-1.1c.7-1.2,1.4-2.5,2.1-3.7l.6-1c.8-1.2,1.5-2.5,2.3-3.7l.6-.9c.8-1.3,1.6-2.5,2.4-3.7l.6-.8c.8-1.2,1.7-2.5,2.6-3.7l.6-.8c.9-1.2,1.8-2.5,2.7-3.7l.6-.8c.9-1.2,1.9-2.5,2.8-3.7l.6-.7c.6-.7,1.2-1.5,1.8-2.2-4.1,4.8-7.9,9.7-11.4,14.6l-.2.2c-1,1.4-2,2.8-3,4.3-1.1,1.6-2,3-2.9,4.5l-4-2.7,3.9,2.9c-.9,1.4-1.8,2.9-2.6,4.3v.2c-1,1.5-1.8,2.9-2.6,4.3l-.2.3c-.8,1.5-1.6,2.9-2.3,4.3l-.3.5c-.7,1.4-1.4,2.7-2.1,4.1l-.3.6c-.7,1.3-1.3,2.7-1.9,4l-.4.8c-.6,1.3-1.2,2.6-1.7,3.9l-.4.9c-.5,1.3-1,2.5-1.5,3.8l-.4,1.1c-.5,1.2-.9,2.5-1.4,3.7l-.4,1.2c-.4,1.2-.8,2.4-1.2,3.6l-.5,1.4c-.4,1.1-.7,2.3-1,3.5l-.5,1.6c-.3,1.1-.6,2.2-.9,3.3l-.4,1.7c-.3,1.1-.5,2.1-.7,3.2v.6c-.2.4-.3.8-.4,1.3-.2.9-.4,1.9-.5,2.8l-.2.9c0,.5-.2.9-.3,1.4-.2.9-.3,1.7-.4,2.6v.7c-.2.6-.3,1.2-.4,1.8-.1.8-.2,1.5-.3,2.3l-.2,1.3c0,.4,0,.7-.1,1.1l-.5,4.7ZM1309.5,1005.7h335.1l-175.1-776.5h-137.6c0,.2,0,.4,0,.6v1.6c.2,1.3.4,2.7.4,4v1.2c.2,1.4.2,2.9.3,4.4v.8c0,1.6.1,3.1.1,4.7v.5c0,1.6,0,3.3,0,4.9-1.1,45.5-18.5,86.6-50.5,119h0c-1.1,1.2-2.3,2.4-3.5,3.5-1.3,1.2-2.5,2.3-3.7,3.4l-.2.2c-1.2,1.1-2.4,2.1-3.6,3.1h-.2c-1.3,1.3-2.5,2.3-3.7,3.2l-.4.3c-1.2,1-2.4,1.9-3.6,2.8l-.5.4c-1.2.9-2.4,1.8-3.6,2.7l-.6.5c-1.2.8-2.3,1.7-3.5,2.5l-.7.5c-1.2.8-2.3,1.6-3.5,2.4l-.9.6c-1.1.7-2.3,1.5-3.5,2.2l-1,.6c-1.1.7-2.3,1.4-3.5,2.1l-1.1.6c-1.1.6-2.3,1.3-3.4,1.9l-1.2.7c-1.1.6-2.3,1.2-3.4,1.8l-1.4.7c-1.1.6-2.2,1.1-3.4,1.7l-1.5.7c-1.1.5-2.2,1-3.3,1.6l-1.6.7c-1.1.5-2.2,1-3.3,1.4l-1.7.7c-1,.4-2.1.9-3.2,1.3l-1.9.8c-1,.4-2.1.8-3.2,1.2l-2,.8c-1,.4-2,.7-3,1l-2.3.8c-.9.3-1.8.6-2.8.9l-2.6.8c-.9.3-1.8.5-2.7.8l-2.7.8c-.8.2-1.7.5-2.5.7l-1.4.4c-.5.1-1,.3-1.5.4-.8.2-1.7.4-2.5.6l-1.4.3c-.5.1-1.1.3-1.6.4-.8.2-1.7.4-2.5.6l-1.4.3c-.6.1-1.1.3-1.7.4-.8.2-1.6.3-2.4.5l-1.6.3c-.6.1-1.2.2-1.7.3-.8.1-1.6.3-2.4.4l-1.6.3c-.6.1-1.2.2-1.8.3-.8.1-1.6.2-2.3.4l-1.7.2c-.6,0-1.2.2-1.8.3-.8.1-1.6.2-2.3.3l-1.7.2c-.6,0-1.2.2-1.8.2-.8,0-1.6.2-2.4.2l-1.7.2c-.6,0-1.2.1-1.8.2-.8,0-1.7.1-2.5.2h-1.7c-.6.2-1.1.2-1.7.3-.9,0-1.8.1-2.7.2h-1.7c-.5.1-1,.2-1.6.2-1.2,0-2.3,0-3.5.1h-2.6c-2,.1-4.1.2-6.1.2h-232.3c-2.1,0-4.1,0-6.1,0h-2.6c-1.2-.1-2.3-.2-3.5-.2-.5,0-1,0-1.6,0h-1.7c-.9-.1-1.8-.2-2.7-.3-.6,0-1.1,0-1.7-.1h-1.7c-.8-.2-1.7-.3-2.5-.3-.6,0-1.2-.1-1.8-.2l-1.8-.2c-.8,0-1.6-.2-2.4-.2-.6,0-1.2-.1-1.8-.2l-1.7-.2c-.8,0-1.6-.2-2.4-.3-.6,0-1.2-.2-1.8-.3l-1.7-.3c-.8-.1-1.6-.2-2.3-.4-.6,0-1.2-.2-1.8-.3l-1.6-.3c-.8-.1-1.6-.3-2.4-.4-.6-.1-1.2-.2-1.7-.3l-1.5-.3c-.8-.2-1.6-.3-2.4-.5-.6-.1-1.1-.2-1.7-.4l-1.5-.3c-.8-.2-1.6-.4-2.4-.5l-3-.7c-.9-.2-1.7-.4-2.6-.6l-2.9-.8c-.9-.2-1.7-.5-2.6-.7-.5-.1-1-.3-1.5-.4l-1.1-.3c-.9-.3-1.8-.5-2.7-.8l-2.5-.8c-.9-.3-1.9-.6-2.8-.9l-2.4-.8c-1-.3-1.9-.7-2.9-1l-1.9-.7c-1.1-.4-2.2-.8-3.2-1.2l-1.8-.7c-1.1-.4-2.2-.9-3.3-1.3l-1.7-.7c-1.1-.5-2.2-1-3.3-1.4l-1.6-.7c-1.1-.5-2.2-1-3.4-1.6l-1.5-.7c-1.1-.6-2.3-1.1-3.4-1.7l-1.4-.7c-1.1-.6-2.3-1.2-3.4-1.8l-1.2-.7c-1.2-.6-2.3-1.3-3.5-1.9l-1.1-.6c-1.2-.7-2.3-1.4-3.5-2.1l-1-.6c-1.2-.7-2.3-1.5-3.5-2.2l-.9-.6c-1.2-.8-2.4-1.6-3.6-2.4l-.7-.5c-1.2-.8-2.4-1.7-3.6-2.5l-.6-.5c-1.2-.9-2.4-1.8-3.6-2.7l-.5-.4c-1.2-.9-2.4-1.9-3.6-2.8l-.3-.3c-1.3-1.1-2.5-2.1-3.7-3.1h-.2c-1.3-1.3-2.6-2.3-3.7-3.4h-.2c-1.3-1.3-2.5-2.4-3.6-3.5-1.3-1.3-2.5-2.4-3.7-3.6-32.3-32.5-50.1-73.5-51.6-118.8v-.3c0-1.6,0-3.3,0-4.9v-.5c0-1.6,0-3.1,0-4.7v-.8c0-1.5.1-2.9.2-4.4v-1.2c.1-1.3.2-2.7.3-4v-1.5c.1-.2.2-.5.2-.7h-137.6l-165.8,776.5h335.1s0,0,0,0c0-.7.2-1.4.3-2v-.7c.3-.9.4-1.9.6-2.8,0-.5.2-1.1.3-1.6l.2-.9c.2-1,.4-2,.6-3,0-.5.2-1,.3-1.5v-.6c.4-1.1.6-2.3.9-3.4.1-.4.2-.9.3-1.3v-.5c.4-1.2.7-2.4,1.1-3.5l.5-1.7c.4-1.2.7-2.5,1.1-3.7l.5-1.5c.4-1.3.8-2.6,1.3-3.8l.5-1.3c.5-1.3,1-2.6,1.5-4l.5-1.2c.5-1.3,1.1-2.7,1.6-4.1l.4-1c.6-1.4,1.2-2.8,1.8-4.2l.4-.8c.7-1.4,1.3-2.9,2-4.3l.4-.7c.7-1.4,1.5-2.9,2.2-4.3l.3-.6c.8-1.5,1.6-3,2.4-4.4l.3-.4c.9-1.5,1.7-3,2.6-4.5v-.2c1.1-1.6,2.1-3.1,3-4.6l.2-.2c1-1.5,2-3.1,3-4.6,1.1-1.7,2.2-3.2,3.2-4.7h0c19.6-27.7,47.1-52.8,79.6-72.7h.2c1.8-1.2,3.5-2.3,5.3-3.3,1.9-1.1,3.7-2.1,5.5-3.2h.2c1.8-1.1,3.6-2.1,5.4-3.1h.2c1.9-1.1,3.7-2,5.5-3h.3c1.9-1.1,3.7-2,5.5-2.9l.5-.3c1.7-.8,3.5-1.7,5.3-2.5l.7-.3c1.7-.8,3.5-1.6,5.3-2.4l.8-.3c1.7-.8,3.5-1.5,5.2-2.2l.9-.4c1.7-.7,3.4-1.4,5.2-2.1l1.1-.4c1.7-.7,3.4-1.3,5.1-2l1.2-.4c1.7-.6,3.3-1.2,5-1.8l1.3-.5c1.6-.6,3.3-1.1,5-1.7l1.5-.5c1.6-.5,3.2-1.1,4.8-1.6l1.6-.5c1.6-.5,3.2-1,4.8-1.4l1.8-.5c1.6-.4,3.1-.9,4.7-1.3l2.3-.6c1.4-.4,2.8-.7,4.2-1.1l2.6-.6c1.3-.3,2.7-.7,4-1l3-.7c1.2-.3,2.4-.5,3.6-.8l3.2-.7c1.2-.2,2.3-.5,3.5-.7l3.5-.6c1.1-.2,2.2-.4,3.3-.6.6-.1,1.2-.2,1.8-.3l2-.3c1-.2,2-.3,3-.5.7-.1,1.3-.2,2-.3l2.1-.3c.9-.1,1.8-.3,2.8-.4.7,0,1.4-.2,2.1-.3l2.2-.3c.9-.1,1.7-.2,2.6-.3.7,0,1.5-.2,2.2-.2l2.2-.2c.8,0,1.7-.2,2.5-.3.8,0,1.5-.1,2.3-.2l2.3-.2c.8,0,1.6-.1,2.4-.2.8,0,1.6-.1,2.4-.2l2.3-.2c.8,0,1.5-.1,2.3-.2.9,0,1.8,0,2.7-.1h2.3c.7-.1,1.4-.2,2.1-.2,1.2,0,2.5,0,3.7-.1h3.4c4.8-.2,9.6-.2,14.3,0h3.4c1.3.1,2.5.2,3.8.2.7,0,1.4,0,2.2.1h2.2c.9.1,1.8.2,2.7.2.8,0,1.6.1,2.4.2h2.2c.8.2,1.6.3,2.5.3.8,0,1.6.1,2.4.2l2.2.2c.8,0,1.6.1,2.4.2.8,0,1.6.2,2.5.3l2.2.2c.8,0,1.5.2,2.3.2.9.1,1.8.2,2.6.3l2.2.3c.7,0,1.4.2,2.1.3.9.1,1.8.3,2.7.4l2.1.3c.7,0,1.3.2,2,.3,1,.2,2,.3,3,.5l2,.3c.6,0,1.2.2,1.8.3,1.1.2,2.2.4,3.3.6l3.5.6c1.2.2,2.3.5,3.5.7l3.2.7c1.2.3,2.5.5,3.7.8l3,.7c1.3.3,2.6.6,3.9.9l2.8.7c1.4.4,2.8.7,4.2,1.1l2.3.6c1.6.4,3.2.9,4.7,1.3l1.8.5c1.6.5,3.2.9,4.8,1.4l1.7.5c1.6.5,3.2,1,4.8,1.5l1.6.5c1.7.6,3.3,1.1,5,1.7l1.3.5c1.7.6,3.4,1.2,5,1.8l1.2.4c1.7.6,3.4,1.3,5.1,2l1.1.4c1.7.7,3.5,1.4,5.2,2.1l.9.4c1.8.7,3.5,1.5,5.3,2.3l.8.3c1.8.8,3.5,1.6,5.3,2.4l.7.3c1.8.8,3.6,1.7,5.3,2.5l.5.3c1.8.9,3.6,1.7,5.3,2.6l.5.2c1.8.9,3.6,1.9,5.4,2.8h.3c1.8,1.1,3.6,2.1,5.4,3.1h.2c1.8,1.1,3.6,2.2,5.4,3.2,1.9,1.1,3.7,2.2,5.5,3.3,1.9,1.1,3.6,2.2,5.4,3.3l.3.2c30.7,19.5,55.9,42.7,75,69.1,1.1,1.6,2.2,3.1,3.3,4.7,1.1,1.6,2.1,3.2,3.1,4.7l.2.3c1,1.5,1.9,3,2.8,4.5l.2.4c.9,1.5,1.8,3,2.6,4.5l.3.5c.8,1.4,1.6,2.9,2.5,4.4l.3.6c.8,1.4,1.5,2.9,2.3,4.4l.4.7c.7,1.4,1.4,2.8,2.1,4.3l.4.8c.6,1.4,1.3,2.8,1.9,4.2l.4,1c.6,1.4,1.2,2.7,1.7,4.1l.5,1.1c.5,1.3,1,2.6,1.5,4l.5,1.3c.5,1.3.9,2.6,1.3,3.9l.5,1.5c.4,1.2.8,2.5,1.2,3.7l.5,1.6c.3,1.2.7,2.4,1,3.6l.5,1.8c.3,1.1.5,2.1.8,3.2l.2.8c.1.5.2,1,.3,1.5.2,1,.4,2,.6,3l.2.9c.1.5.2,1.1.3,1.6.2.8.3,1.7.5,2.5l.2,1.2c.1.6.2,1.2.3,1.8,0,0,0,.1,0,.2ZM728.1,1005.7h560.1c0,0,0-.2,0-.3l-.2-1.2c-.1-.7-.2-1.4-.4-2.1-.1-.6-.2-1.1-.3-1.7l-.2-.8c-.2-.8-.3-1.6-.5-2.4-.1-.5-.2-1-.3-1.5l-.2-.7c-.2-.9-.4-1.7-.6-2.6-.1-.4-.2-.8-.3-1.2l-.2-.7c-.3-1-.5-2-.8-3-.1-.4-.2-.7-.3-1.1l-.3-.9c-.3-.9-.6-1.9-.9-2.8l-.5-1.6c-.4-1.1-.7-2.1-1.1-3.1l-.6-1.5c-.4-1.1-.8-2.2-1.2-3.2l-.6-1.4c-.4-1.1-.9-2.2-1.4-3.3l-.6-1.3c-.5-1.1-1-2.2-1.5-3.3l-.6-1.2c-.5-1.1-1.1-2.3-1.6-3.4l-.6-1.1c-.6-1.1-1.2-2.3-1.8-3.4l-.6-1.1c-.6-1.1-1.3-2.3-1.9-3.4l-.6-1c-.7-1.2-1.4-2.3-2.1-3.5l-.6-.9c-.7-1.2-1.5-2.3-2.2-3.5l-.6-.8c-.8-1.2-1.5-2.4-2.3-3.5l-.6-.8c-.8-1.2-1.6-2.3-2.5-3.5l-.6-.8c-.9-1.2-1.7-2.3-2.6-3.5l-.6-.7c-.9-1.2-1.8-2.3-2.7-3.5l-.6-.7c-.9-1.2-1.9-2.3-2.8-3.5l-.6-.7c-1-1.1-2-2.3-3-3.4l-.6-.6c-1-1.2-2-2.3-3.1-3.4l-.6-.6c-1-1.1-2.1-2.2-3.2-3.3l-.6-.6c-1.1-1.1-2.2-2.2-3.3-3.3l-.6-.6c-1.1-1.1-2.2-2.2-3.4-3.2l-.7-.6c-1.1-1.1-2.3-2.1-3.4-3.2l-.7-.6c-1.2-1-2.3-2.1-3.5-3.1l-.7-.6c-1.2-1-2.4-2-3.6-3l-.8-.6c-1.2-1-2.4-2-3.7-3l-.8-.6c-1.2-1-2.5-1.9-3.7-2.9l-.9-.7c-1.2-.9-2.5-1.9-3.8-2.8l-.9-.7c-1.3-.9-2.5-1.8-3.8-2.7l-1-.7c-1.3-.9-2.6-1.8-3.9-2.6l-1.1-.7c-1.3-.8-2.6-1.7-3.9-2.5l-1.1-.7c-1.3-.8-2.6-1.6-3.9-2.4l-1.2-.7c-1.3-.8-2.6-1.6-3.9-2.3l-1.3-.7c-1.3-.7-2.6-1.5-3.9-2.2l-1.4-.8c-1.3-.7-2.6-1.4-3.9-2.1l-1.5-.8c-1.3-.7-2.6-1.3-3.9-2l-1.6-.8c-1.3-.6-2.6-1.3-3.8-1.9l-1.9-.9c-1.2-.6-2.4-1.1-3.6-1.7l-2.3-1c-1.1-.5-2.2-1-3.3-1.5l-2.4-1c-1.1-.5-2.2-.9-3.2-1.4l-2.4-1c-1.1-.4-2.2-.9-3.3-1.3l-2.7-1c-1-.4-2-.8-3.1-1.2l-2.9-1.1c-1-.4-2-.7-3-1.1l-3.2-1.1c-.9-.3-1.8-.6-2.8-.9l-3.3-1.1c-.9-.3-1.8-.6-2.7-.9l-3.5-1c-.9-.3-1.7-.5-2.6-.8l-3.5-1c-.9-.2-1.7-.5-2.6-.7-.6-.2-1.2-.3-1.7-.5l-2-.5c-.8-.2-1.6-.4-2.5-.6-.6-.2-1.2-.3-1.8-.4l-2-.5c-.8-.2-1.6-.4-2.4-.6-.6-.1-1.3-.3-1.9-.4l-2-.4c-.8-.2-1.6-.4-2.4-.5-.6-.1-1.3-.3-1.9-.4l-2.1-.4c-.8-.2-1.5-.3-2.3-.5-.7-.1-1.4-.3-2.1-.4l-2.2-.4c-.7-.1-1.4-.3-2.2-.4-.7-.1-1.5-.2-2.2-.4l-2.1-.3c-.7-.1-1.4-.2-2.1-.3-.8-.1-1.6-.2-2.4-.3l-2.1-.3c-.7,0-1.4-.2-2.1-.3-.8-.1-1.6-.2-2.3-.3l-2.2-.3c-.6,0-1.3-.2-1.9-.2-.8,0-1.6-.2-2.4-.3l-2.2-.2c-.7,0-1.3-.1-2-.2-.8,0-1.6-.1-2.5-.2l-2.3-.2c-.6,0-1.3-.1-1.9-.2-.9,0-1.7-.1-2.6-.2h-2.1c-.6-.2-1.3-.2-1.9-.3-1,0-2-.1-3-.1l-3.6-.2c-1.4,0-2.8,0-4.1-.1h-2.6c-4.5-.2-9-.2-13.5,0h-2.7c-1.3.1-2.7.1-4,.2l-3.7.2c-1,0-2,0-2.9.1-.6,0-1.3,0-1.9.1h-2.2c-.9.2-1.7.3-2.6.3-.7,0-1.3.1-2,.2l-2.1.2c-.8,0-1.7.1-2.5.2-.7,0-1.3.1-2,.2l-2.2.2c-.8,0-1.6.2-2.4.3-.7,0-1.3.2-2,.2l-2.2.3c-.8,0-1.6.2-2.4.3-.7,0-1.4.2-2.1.3l-2.1.3c-.8.1-1.5.2-2.3.3-.7.1-1.4.2-2.1.3l-2.1.3c-.7.1-1.5.2-2.2.4-.7.1-1.4.3-2.2.4l-2.1.4c-.7.1-1.4.3-2.1.4-.8.1-1.5.3-2.3.5l-2.1.4c-.7.1-1.3.3-2,.4-.8.2-1.6.3-2.4.5l-2,.4c-.6.1-1.3.3-1.9.4-.8.2-1.6.4-2.4.6l-2,.5c-.6.1-1.2.3-1.8.4-.8.2-1.7.4-2.5.7l-3.6.9c-.9.2-1.7.5-2.5.7l-3.6,1c-.9.3-1.7.5-2.6.8l-3.4,1c-.9.3-1.9.6-2.8.9l-1.6.5c-.5.2-1.1.3-1.6.5-1,.3-1.9.6-2.8,1l-3.1,1c-1,.3-1.9.7-2.9,1l-2.9,1.1c-1,.4-2.1.8-3.1,1.2l-2.7,1c-1.1.4-2.2.9-3.3,1.3l-2.4,1c-1.1.5-2.2.9-3.2,1.4l-2.4,1c-1.1.5-2.2,1-3.3,1.5l-2.3,1c-1.2.6-2.4,1.1-3.6,1.7l-1.9.9c-1.2.6-2.4,1.2-3.7,1.8l-1.7.9c-1.3.6-2.5,1.3-3.8,2l-1.6.8c-1.3.7-2.6,1.4-3.9,2.1l-1.4.7c-1.3.7-2.6,1.5-3.9,2.2l-1.3.7c-1.3.8-2.6,1.5-3.8,2.3l-1.2.7c-1.3.8-2.6,1.6-3.9,2.4l-1.1.7c-1.3.8-2.6,1.7-3.8,2.5l-1,.7c-1.3.9-2.5,1.7-3.8,2.6l-1,.7c-1.3.9-2.5,1.8-3.7,2.7l-.9.7c-1.2.9-2.5,1.8-3.7,2.8l-.9.6c-1.2,1-2.5,1.9-3.7,2.9l-.8.6c-1.2,1-2.4,2-3.6,3l-.7.6c-1.2,1-2.4,2-3.6,3l-.7.6c-1.2,1-2.3,2.1-3.5,3.1l-.7.6c-1.2,1.1-2.3,2.1-3.4,3.2l-.7.6c-1.1,1.1-2.2,2.1-3.3,3.2l-.6.6c-1.1,1.1-2.2,2.2-3.2,3.3l-.6.6c-1,1.1-2.1,2.2-3.1,3.3l-.6.6c-1,1.1-2,2.3-3,3.4l-.6.7c-1,1.1-1.9,2.3-2.9,3.4l-.6.7c-.9,1.1-1.9,2.3-2.8,3.4l-.6.7c-.9,1.2-1.8,2.3-2.7,3.5l-.5.7c-.9,1.2-1.7,2.3-2.6,3.5l-.6.8c-.8,1.2-1.6,2.3-2.4,3.5l-.5.8c-.8,1.2-1.5,2.3-2.3,3.5l-.6.9c-.7,1.2-1.4,2.3-2.1,3.5l-.6.9c-.7,1.2-1.4,2.3-2,3.5l-.6,1c-.6,1.2-1.3,2.3-1.9,3.5l-.6,1c-.6,1.1-1.2,2.3-1.7,3.4l-.6,1.1c-.5,1.1-1.1,2.3-1.6,3.4l-.6,1.2c-.5,1.1-1,2.2-1.4,3.3l-.6,1.3c-.5,1.1-.9,2.2-1.3,3.3l-.5,1.4c-.4,1.1-.8,2.1-1.2,3.2l-.5,1.5c-.4,1-.7,2.1-1,3.1l-.5,1.6c-.3,1-.6,2-.9,3l-.2.7c-.1.4-.2.7-.3,1.1-.3,1-.5,2-.8,3v.6c-.3.4-.4.9-.5,1.3-.2.8-.4,1.6-.6,2.5l-.2,1.1c-.1.4-.2.9-.3,1.3-.2.8-.3,1.7-.5,2.5l-.2.9c0,.5-.2,1-.3,1.5-.1.8-.3,1.6-.4,2.4v.8c-.1.1-.2.3-.2.4ZM833.8,848.4l1.4,3.3c0,0,0,0,.1,0l-1.6-3.3ZM1178.8,851.6c0,0,.1,0,.2,0l1.2-3.3-1.4,3.3ZM739.1,357c1,1,2.1,2,3.1,3l.2.2c1.1,1,2.1,2,3.2,2.9l.3.3c1,.9,2.1,1.8,3.1,2.8l.5.4c1,.9,2.1,1.7,3.1,2.6l.5.4c1,.8,2.1,1.7,3.1,2.5l.6.5c1,.8,2.1,1.6,3.1,2.3l.7.5c1,.7,2.1,1.5,3.1,2.2l.9.6c1,.7,2.1,1.4,3.1,2.1l1,.6c1,.7,2,1.3,3.1,1.9l1.1.7c1,.6,2,1.2,3.1,1.8l1.2.7c1,.6,2,1.1,3,1.7l1.3.7c1,.5,2,1.1,3,1.6l1.4.7c1,.5,2,1,3,1.5l1.5.7c1,.5,2,.9,2.9,1.4l1.6.7c1,.4,1.9.9,2.9,1.3l1.7.7c.9.4,1.9.8,2.8,1.1l1.9.8c.9.3,1.7.7,2.6,1l2.2.8c.8.3,1.6.6,2.5.9l2.4.8c.8.3,1.5.5,2.3.8l2.6.8c.8.2,1.5.5,2.3.7l2.7.8c.7.2,1.5.4,2.2.6l1.3.4c.5.1,1,.3,1.5.4.7.2,1.5.4,2.2.5l1.3.3c.5.1,1.1.3,1.6.4.7.2,1.4.3,2,.5l1.5.3c.6.1,1.1.2,1.7.4.7.1,1.4.3,2.1.4l1.5.3c.6.1,1.1.2,1.7.3.7.1,1.4.2,2.1.4l1.6.3c.5,0,1.1.2,1.7.3.7.1,1.4.2,2.1.3l1.6.2c.5,0,1.1.2,1.6.2.7,0,1.4.2,2.1.3l1.7.2c.5,0,1.1.1,1.6.2.7,0,1.5.2,2.2.2l1.7.2c.5,0,1,.1,1.6.2.8,0,1.5.1,2.3.2h1.7c.5.2,1,.2,1.6.3.8,0,1.6,0,2.4.1l3.2.2c1,0,2,0,3,.1h2.7c1.9.1,3.8.2,5.7.2h231.2c1.9,0,3.8,0,5.7,0h2.7c1-.1,2-.1,3-.2l3.1-.2c.8,0,1.6,0,2.5-.1.5,0,1,0,1.5-.1h1.8c.7-.2,1.5-.3,2.2-.3.5,0,1.1-.1,1.6-.2l1.7-.2c.7,0,1.5-.1,2.2-.2.5,0,1.1-.1,1.6-.2l1.7-.2c.7,0,1.4-.2,2.1-.3.6,0,1.1-.2,1.7-.2l1.6-.2c.7-.1,1.4-.2,2.1-.3.5,0,1.1-.2,1.6-.3l1.6-.3c.7-.1,1.4-.2,2.1-.4.5,0,1.1-.2,1.6-.3l1.5-.3c.7-.1,1.4-.3,2.2-.4.5-.1,1.1-.2,1.6-.3l1.5-.3c.7-.2,1.4-.3,2.1-.5l3-.7c.7-.2,1.4-.3,2.1-.5l2.9-.8c.7-.2,1.4-.4,2.1-.6l2.8-.8c.7-.2,1.5-.4,2.2-.7l2.6-.8c.8-.2,1.6-.5,2.3-.8l2.3-.8c.8-.3,1.7-.6,2.5-.9l2.1-.8c.9-.3,1.8-.7,2.6-1l1.8-.7c1.1-.4,2-.8,2.9-1.2l1.7-.7c1-.4,1.9-.8,2.9-1.3l1.6-.7c1-.5,2-.9,2.9-1.4l1.5-.7c1-.5,2-1,3-1.5l1.4-.7c1-.5,2-1,3-1.6l1.3-.7c1-.6,2-1.1,3-1.7l1.2-.7c1-.6,2-1.2,3-1.8l1.1-.7c1-.6,2-1.3,3.1-1.9l.9-.6c1-.7,2.1-1.4,3.1-2.1l.9-.6c1-.7,2.1-1.4,3.1-2.2l.7-.5c1-.8,2.1-1.5,3.1-2.3l.6-.5c1.1-.8,2.1-1.6,3.1-2.5l.5-.4c1.1-.9,2.1-1.7,3.1-2.6l.3-.3c1.2-1,2.2-1.9,3.2-2.9l.4-.3c1-.9,2.1-1.9,3.1-2.9h.1c1.2-1.3,2.2-2.3,3.2-3.3l3.1,3.9-3-4.1c1.1-1.1,2.1-2.2,3.1-3.2l.2-.2c1-1,2-2.2,3-3.3,24.9-28.3,38.6-63,39.6-100.3,0-1.6,0-3.1,0-4.6v-.3c0-1.5,0-2.9,0-4.3v-.6c0-1.4-.1-2.7-.2-4v-1c-.1-1.2-.2-2.4-.3-3.7v-1.3c-.1-.3-.2-.6-.2-.9h-622.3c0,.3,0,.5,0,.8v1.3c-.2,1.2-.3,2.5-.3,3.7v.9c0,1.3-.1,2.7-.2,4v.6c0,1.4,0,2.9,0,4.3v.4c0,1.5,0,3,.1,4.5,1.4,37.5,15.5,72.2,40.7,100.5l.2.2c.9,1,1.9,2.1,3,3.2,1.1,1.2,2.2,2.3,3.2,3.3l-2.8,4.3,2.9-4.1ZM738.5,370.4l-2,3.4,2.1-3.2c0,0,0,0-.1-.1Z"/>
  <rect class="st0" x="15" y="15" width="2000" height="2000"/>
</svg>